<?xml version="1.0" encoding="UTF-8"?>
<svg width="176px" height="49px" viewBox="0 0 176 49" version="1.1" xmlns="http://www.w3.org/2000/svg" xmlns:xlink="http://www.w3.org/1999/xlink">
    <title>左上</title>
    <defs>
        <filter x="-23.3%" y="-19.4%" width="143.3%" height="136.1%" filterUnits="objectBoundingBox" id="filter-1">
            <feGaussianBlur stdDeviation="2" in="SourceGraphic"></feGaussianBlur>
        </filter>
        <linearGradient x1="84.7222222%" y1="24.8392874%" x2="15.2777778%" y2="100%" id="linearGradient-2">
            <stop stop-color="#23DEFD" stop-opacity="0.00469842657" offset="0%"></stop>
            <stop stop-color="#20DBFD" offset="100%"></stop>
        </linearGradient>
        <polygon id="path-3" points="0 0 135.924309 0 140 12 0 12"></polygon>
        <linearGradient x1="46.601809%" y1="49.4768255%" x2="59.2172351%" y2="52.0559089%" id="linearGradient-5">
            <stop stop-color="#74C8F9" stop-opacity="0" offset="0%"></stop>
            <stop stop-color="#3FA1FB" offset="100%"></stop>
        </linearGradient>
    </defs>
    <g id="页面-1" stroke="none" stroke-width="1" fill="none" fill-rule="evenodd">
        <g id="画框" transform="translate(-196, -1512)">
            <g id="左上" transform="translate(202, 1513)">
                <polyline id="路径" stroke="#3EBBFF" stroke-width="2" opacity="0.385723296" filter="url(#filter-1)" points="1 42 1 22.2540231 15.6883868 6 31 6"></polyline>
                <polyline id="路径" stroke="url(#linearGradient-2)" stroke-width="2" points="0 36 0 16.2540231 14.6883868 0 30 0"></polyline>
                <g id="形状结合备份-17" transform="translate(100, 6) scale(-1, 1) translate(-100, -6)translate(30, 0)">
                    <mask id="mask-4" fill="white">
                        <use xlink:href="#path-3"></use>
                    </mask>
                    <g id="蒙版"></g>
                    <path d="M-176.190324,-77.546306 L-172.190324,-77.546306 L-172.190324,68.453694 L-176.190324,68.453694 Z M75.1500039,-77.3474545 L79.1500039,-77.3474545 L79.1500039,68.6525455 L75.1500039,68.6525455 Z M-50.5201601,-77.4468803 L-46.5201601,-77.4468803 L-46.5201601,68.5531197 L-50.5201601,68.5531197 Z M200.820168,-77.2480287 L204.820168,-77.2480287 L204.820168,68.7519713 L200.820168,68.7519713 Z M-112.945666,-77.2098049 L-108.945666,-77.2098049 L-108.945666,68.7901951 L-112.945666,68.7901951 Z M137.57551,-77.5845298 L141.57551,-77.5845298 L141.57551,68.4154702 L137.57551,68.4154702 Z M12.7244979,-77.1103792 L16.7244979,-77.1103792 L16.7244979,68.8896208 L12.7244979,68.8896208 Z M263.245674,-77.4851041 L267.245674,-77.4851041 L267.245674,68.5148959 L263.245674,68.5148959 Z M-144.567995,-77.3780555 L-140.567995,-77.3780555 L-140.567995,68.6219445 L-144.567995,68.6219445 Z M106.772333,-77.1792039 L110.772333,-77.1792039 L110.772333,68.8207961 L106.772333,68.8207961 Z M-18.8978311,-77.2786297 L-14.8978311,-77.2786297 L-14.8978311,68.7213703 L-18.8978311,68.7213703 Z M231.623345,-77.6533546 L235.623345,-77.6533546 L235.623345,68.3466454 L231.623345,68.3466454 Z M-82.1424891,-77.6151308 L-78.1424891,-77.6151308 L-78.1424891,68.3848692 L-82.1424891,68.3848692 Z M169.197839,-77.4162793 L173.197839,-77.4162793 L173.197839,68.5837207 L169.197839,68.5837207 Z M43.5276749,-77.515705 L47.5276749,-77.515705 L47.5276749,68.484295 L43.5276749,68.484295 Z M294.868003,-77.3168535 L298.868003,-77.3168535 L298.868003,68.6831465 L294.868003,68.6831465 Z M-160.37916,-77.4621807 L-156.37916,-77.4621807 L-156.37916,68.5378193 L-160.37916,68.5378193 Z M90.9611684,-77.2633292 L94.9611684,-77.2633292 L94.9611684,68.7366708 L90.9611684,68.7366708 Z M-34.7089956,-77.362755 L-30.7089956,-77.362755 L-30.7089956,68.637245 L-34.7089956,68.637245 Z M216.631332,-77.1639035 L220.631332,-77.1639035 L220.631332,68.8360965 L216.631332,68.8360965 Z M-97.1345016,-77.1256796 L-93.1345016,-77.1256796 L-93.1345016,68.8743204 L-97.1345016,68.8743204 Z M153.386674,-77.5004046 L157.386674,-77.5004046 L157.386674,68.4995954 L153.386674,68.4995954 Z M27.7165103,-77.5998303 L31.7165103,-77.5998303 L31.7165103,68.4001697 L27.7165103,68.4001697 Z M279.056838,-77.4009788 L283.056838,-77.4009788 L283.056838,68.5990212 L279.056838,68.5990212 Z M-128.756831,-77.2939302 L-124.756831,-77.2939302 L-124.756831,68.7060698 L-128.756831,68.7060698 Z M121.764345,-77.6686551 L125.764345,-77.6686551 L125.764345,68.3313449 L121.764345,68.3313449 Z M-3.08666661,-77.1945044 L0.913333388,-77.1945044 L0.913333388,68.8054956 L-3.08666661,68.8054956 Z M247.434509,-77.5692294 L251.434509,-77.5692294 L251.434509,68.4307706 L247.434509,68.4307706 Z M-66.3313246,-77.5310055 L-62.3313246,-77.5310055 L-62.3313246,68.4689945 L-66.3313246,68.4689945 Z M185.009003,-77.332154 L189.009003,-77.332154 L189.009003,68.667846 L185.009003,68.667846 Z M59.3388394,-77.4315798 L63.3388394,-77.4315798 L63.3388394,68.5684202 L59.3388394,68.5684202 Z M310.679167,-77.2327283 L314.679167,-77.2327283 L314.679167,68.7672717 L310.679167,68.7672717 Z M-168.161954,-76.8078791 L-164.161954,-76.8078791 L-164.161954,69.1921209 L-168.161954,69.1921209 Z M82.3592219,-77.1826041 L86.3592219,-77.1826041 L86.3592219,68.8173959 L82.3592219,68.8173959 Z M-42.4917901,-76.7084534 L-38.4917901,-76.7084534 L-38.4917901,69.2915466 L-42.4917901,69.2915466 Z M208.029386,-77.0831783 L212.029386,-77.0831783 L212.029386,68.9168217 L208.029386,68.9168217 Z M-105.736448,-77.0449545 L-101.736448,-77.0449545 L-101.736448,68.9550455 L-105.736448,68.9550455 Z M145.60388,-76.846103 L149.60388,-76.846103 L149.60388,69.153897 L145.60388,69.153897 Z M19.9337159,-76.9455287 L23.9337159,-76.9455287 L23.9337159,69.0544713 L19.9337159,69.0544713 Z M270.454892,-77.3202536 L274.454892,-77.3202536 L274.454892,68.6797464 L270.454892,68.6797464 Z M-136.539625,-76.6396286 L-132.539625,-76.6396286 L-132.539625,69.3603714 L-136.539625,69.3603714 Z M113.981551,-77.0143535 L117.981551,-77.0143535 L117.981551,68.9856465 L113.981551,68.9856465 Z M-11.6886131,-77.1137793 L-7.6886131,-77.1137793 L-7.6886131,68.8862207 L-11.6886131,68.8862207 Z M239.651715,-76.9149278 L243.651715,-76.9149278 L243.651715,69.0850722 L239.651715,69.0850722 Z M-74.1141191,-76.8767039 L-70.1141191,-76.8767039 L-70.1141191,69.1232961 L-74.1141191,69.1232961 Z M176.407057,-77.2514288 L180.407057,-77.2514288 L180.407057,68.7485712 L176.407057,68.7485712 Z M51.5560449,-76.7772782 L55.5560449,-76.7772782 L55.5560449,69.2227218 L51.5560449,69.2227218 Z M302.077221,-77.1520031 L306.077221,-77.1520031 L306.077221,68.8479969 L302.077221,68.8479969 Z M-152.35079,-76.7237539 L-148.35079,-76.7237539 L-148.35079,69.2762461 L-152.35079,69.2762461 Z M98.1703864,-77.0984788 L102.170386,-77.0984788 L102.170386,68.9015212 L98.1703864,68.9015212 Z M-27.4997776,-77.1979045 L-23.4997776,-77.1979045 L-23.4997776,68.8020955 L-27.4997776,68.8020955 Z M223.84055,-76.999053 L227.84055,-76.999053 L227.84055,69.000947 L223.84055,69.000947 Z M-89.9252836,-76.9608292 L-85.9252836,-76.9608292 L-85.9252836,69.0391708 L-89.9252836,69.0391708 Z M161.415044,-76.7619777 L165.415044,-76.7619777 L165.415044,69.2380223 L161.415044,69.2380223 Z M35.7448804,-76.8614034 L39.7448804,-76.8614034 L39.7448804,69.1385966 L35.7448804,69.1385966 Z M286.266056,-77.2361284 L290.266056,-77.2361284 L290.266056,68.7638716 L286.266056,68.7638716 Z M-121.547613,-77.1290797 L-117.547613,-77.1290797 L-117.547613,68.8709203 L-121.547613,68.8709203 Z M129.792715,-76.9302282 L133.792715,-76.9302282 L133.792715,69.0697718 L129.792715,69.0697718 Z M4.1225514,-77.029654 L8.1225514,-77.029654 L8.1225514,68.970346 L4.1225514,68.970346 Z M255.462879,-76.8308025 L259.462879,-76.8308025 L259.462879,69.1691975 L255.462879,69.1691975 Z M-58.3029546,-76.7925786 L-54.3029546,-76.7925786 L-54.3029546,69.2074214 L-58.3029546,69.2074214 Z M192.218221,-77.1673036 L196.218221,-77.1673036 L196.218221,68.8326964 L192.218221,68.8326964 Z M66.5480574,-77.2667293 L70.5480574,-77.2667293 L70.5480574,68.7332707 L66.5480574,68.7332707 Z M317.888385,-77.0678778 L321.888385,-77.0678778 L321.888385,68.9321222 L317.888385,68.9321222 Z" id="形状结合" fill="url(#linearGradient-5)" mask="url(#mask-4)" transform="translate(72.849, -4.1541) rotate(-35) translate(-72.849, 4.1541)"></path>
                </g>
            </g>
        </g>
    </g>
</svg>